 <svg
    className="h-full w-full"
    xmlns="http://www.w3.org/2000/svg"
    width="100%"
    height="100%"
    viewBox="0 0 192 150"
    fill="none"
>
    <path
    d="M93.4425 102.122C89.772 107.891 86.2504 113.534 78.3592 119.017C74.1382 121.976 64.4228 127.757 50.613 127.757C24.2659 127.757 3 108.602 3 74.9254C3 45.4932 23.0044 22.2432 51.1748 22.2432C62.5875 22.2432 72.7275 26.1885 80.1949 32.1072C87.1001 37.6009 90.3341 43.0962 93.156 48.0282L73.4385 57.8805C72.0277 54.6458 70.3298 51.2622 65.9711 47.6033C61.1771 43.7952 56.3936 42.6713 52.2986 42.6713C36.2407 42.6713 27.7871 57.6057 27.7871 74.2257C27.7871 96.0649 38.9246 106.904 52.2986 106.904C65.2597 106.904 70.4786 97.8885 73.8514 92.1195L93.4425 102.122V102.122ZM162.515 25.3403H189L154.486 124.798H129.137L95.0483 25.3403H121.533L142.099 96.0653L162.515 25.3403Z"
    fill="black"
    />
</svg>