  <svg
    xmlns="http://www.w3.org/2000/svg"
    width="100%"
    height="100%"
    viewBox="0 0 151 151"
    fill="none"
>
    <g clipPath="url(#clip0_22_55)">
    <path
        d="M96.2772 15.1315C82.5254 11.936 68.224 11.936 54.4722 15.1315C46.5297 10.2602 40.466 8.02149 36.056 7.07649C34.1738 6.65169 32.2478 6.45154 30.3185 6.48024C29.4406 6.50403 28.5668 6.60949 27.7085 6.79524L27.596 6.81774L27.551 6.84024H27.5172L29.0585 12.2515L27.5172 6.85149C26.7269 7.07484 25.995 7.46856 25.3731 8.00497C24.7511 8.54139 24.2542 9.2075 23.9172 9.95649C20.5982 17.3894 19.9658 25.7449 22.1285 33.5927C16.5275 40.3805 13.4752 48.9125 13.4997 57.7127C13.4997 75.184 18.6522 86.929 27.4385 94.4777C33.5922 99.7652 41.0622 102.578 48.5547 104.186C47.3756 107.649 46.9312 111.32 47.2497 114.964V121.691C42.671 122.648 39.4985 122.344 37.2372 121.601C34.4135 120.668 32.2422 118.789 30.161 116.089C29.073 114.634 28.0592 113.124 27.1235 111.566L26.4822 110.52C25.6725 109.174 24.8323 107.846 23.9622 106.538C21.8247 103.376 18.6522 99.4165 13.5222 98.0665L8.07723 96.6377L5.21973 107.528L10.6647 108.956C11.5647 109.181 12.7347 110.025 14.6585 112.849C15.3989 113.964 16.1116 115.097 16.796 116.246L17.561 117.484C18.6185 119.194 19.8335 121.084 21.2397 122.929C24.086 126.641 27.9672 130.388 33.7272 132.289C37.6647 133.594 42.1422 133.909 47.2497 133.121V154.125C47.2497 155.617 47.8424 157.048 48.8973 158.103C49.9521 159.158 51.3829 159.75 52.8747 159.75H97.8747C99.3666 159.75 100.797 159.158 101.852 158.103C102.907 157.048 103.5 155.617 103.5 154.125V114.041C103.5 110.498 103.342 107.246 102.341 104.22C109.8 102.645 117.213 99.8327 123.333 94.5452C132.108 86.9402 137.25 75.0827 137.25 57.5102V57.499C137.221 48.7708 134.168 40.3223 128.61 33.5927C130.77 25.7484 130.137 17.3974 126.821 9.96774C126.486 9.21786 125.992 8.55031 125.372 8.01195C124.752 7.4736 124.022 7.07751 123.232 6.85149L121.691 12.2515C123.232 6.85149 123.221 6.85149 123.21 6.85149L123.187 6.84024L123.142 6.81774L123.041 6.79524C122.763 6.72299 122.481 6.66665 122.197 6.62649C121.608 6.54051 121.015 6.49166 120.42 6.48024C118.49 6.45176 116.564 6.6519 114.682 7.07649C110.283 8.02149 104.22 10.2602 96.2772 15.1315Z"
        fill="black"
    />
    </g>
    <defs>
    <clipPath id="clip0_22_55">
        <rect width="151" height="151" fill="white" />
    </clipPath>
    </defs>
</svg>