 <svg
    xmlns="http://www.w3.org/2000/svg"
    width="100%"
    height="100%"
    viewBox="0 0 150 150"
    fill="none"
>
    <g clipPath="url(#clip0_22_52)">
    <path
        d="M82.7104 0.00727484C88.1834 -0.0137268 93.6564 0.041279 99.1279 0.172275L100.583 0.224775C102.263 0.284775 103.92 0.359775 105.923 0.449775C113.903 0.824775 119.348 2.08478 124.125 3.93728C129.075 5.84228 133.245 8.42227 137.415 12.5923C141.228 16.3393 144.179 20.8719 146.063 25.8748C147.915 30.6523 149.175 36.1048 149.55 44.0848C149.64 46.0798 149.715 47.7448 149.775 49.4248L149.82 50.8798C149.954 56.3487 150.011 61.8192 149.993 67.2898L150 72.8848V82.7098C150.019 88.1828 149.961 93.6558 149.828 99.1273L149.783 100.582C149.723 102.262 149.648 103.92 149.558 105.922C149.183 113.902 147.908 119.347 146.063 124.125C144.185 129.133 141.234 133.669 137.415 137.415C133.665 141.227 129.13 144.178 124.125 146.062C119.348 147.915 113.903 149.175 105.923 149.55C103.92 149.64 102.263 149.715 100.583 149.775L99.1279 149.82C93.6565 149.953 88.1834 150.011 82.7104 149.992L77.1154 150H67.2979C61.8249 150.018 56.3519 149.961 50.8804 149.827L49.4254 149.782C47.645 149.718 45.865 149.643 44.0854 149.557C36.1054 149.182 30.6604 147.907 25.8754 146.062C20.8705 144.182 16.3372 141.231 12.5929 137.415C8.77576 133.667 5.8221 129.131 3.93792 124.125C2.08542 119.347 0.825421 113.902 0.450421 105.922C0.366893 104.143 0.291892 102.363 0.225421 100.582L0.187922 99.1273C0.0496489 93.6559 -0.0128579 88.1829 0.000421255 82.7098V67.2898C-0.020511 61.8193 0.0344949 56.3487 0.165422 50.8798L0.217922 49.4248C0.277922 47.7448 0.352921 46.0798 0.442921 44.0848C0.817921 36.0973 2.07792 30.6598 3.93042 25.8748C5.81572 20.8694 8.77515 16.3381 12.6004 12.5998C16.3421 8.78041 20.8726 5.82407 25.8754 3.93728C30.6604 2.08478 36.0979 0.824775 44.0854 0.449775L49.4254 0.224775L50.8804 0.187276C56.3493 0.0490722 61.8198 -0.0134345 67.2904 -0.000224616L82.7104 0.00727484ZM75.0004 37.5073C70.0317 37.437 65.0986 38.355 60.4877 40.2078C55.8769 42.0606 51.6803 44.8114 48.1418 48.3002C44.6032 51.789 41.7934 55.9463 39.8756 60.5305C37.9577 65.1147 36.9701 70.0343 36.9701 75.0035C36.9701 79.9727 37.9577 84.8924 39.8756 89.4766C41.7934 94.0607 44.6032 98.218 48.1418 101.707C51.6803 105.196 55.8769 107.946 60.4877 109.799C65.0986 111.652 70.0317 112.57 75.0004 112.5C84.946 112.5 94.4843 108.549 101.517 101.516C108.55 94.4837 112.5 84.9454 112.5 74.9998C112.5 65.0542 108.55 55.5159 101.517 48.4833C94.4843 41.4507 84.946 37.5073 75.0004 37.5073ZM75.0004 52.5073C77.9892 52.4522 80.959 52.9933 83.7364 54.0988C86.5137 55.2044 89.0429 56.8523 91.1763 58.9464C93.3096 61.0404 95.0042 63.5385 96.1612 66.2948C97.3183 69.0512 97.9144 72.0104 97.9149 74.9997C97.9154 77.989 97.3202 80.9485 96.1641 83.7052C95.0081 86.4619 93.3142 88.9606 91.1816 91.0553C89.049 93.15 86.5203 94.7988 83.7434 95.9053C80.9664 97.0118 77.9967 97.5538 75.0079 97.4998C69.0405 97.4998 63.3176 95.1292 59.098 90.9097C54.8784 86.6901 52.5079 80.9671 52.5079 74.9998C52.5079 69.0324 54.8784 63.3094 59.098 59.0899C63.3176 54.8703 69.0405 52.4998 75.0079 52.4998L75.0004 52.5073ZM114.375 26.2573C111.956 26.3541 109.668 27.3834 107.99 29.1296C106.312 30.8757 105.375 33.2033 105.375 35.6248C105.375 38.0463 106.312 40.3738 107.99 42.12C109.668 43.8661 111.956 44.8954 114.375 44.9923C116.862 44.9923 119.246 44.0046 121.005 42.2464C122.763 40.4882 123.75 38.1037 123.75 35.6173C123.75 33.1309 122.763 30.7463 121.005 28.9881C119.246 27.23 116.862 26.2423 114.375 26.2423V26.2573Z"
        fill="black"
    />
    </g>
    <defs>
    <clipPath id="clip0_22_52">
        <rect width="150" height="150" fill="white" />
    </clipPath>
    </defs>
</svg>