 <svg
    xmlns="http://www.w3.org/2000/svg"
    width="100%"
    height="100%"
    viewBox="0 0 150 150"
    fill="none"
>
    <path
    d="M37.0498 22.5002C37.0478 26.4784 35.4656 30.2929 32.6511 33.1046C29.8367 35.9162 26.0206 37.4947 22.0423 37.4927C18.0641 37.4907 14.2495 35.9084 11.4379 33.094C8.62626 30.2795 7.04782 26.4634 7.04981 22.4852C7.0518 18.5069 8.63406 14.6924 11.4485 11.8808C14.263 9.06913 18.0791 7.49069 22.0573 7.49268C26.0356 7.49467 29.8501 9.07693 32.6617 11.8914C35.4734 14.7058 37.0518 18.5219 37.0498 22.5002ZM37.4998 48.6002H7.49981V142.5H37.4998V48.6002ZM84.8998 48.6002H55.0498V142.5H84.5998V93.2252C84.5998 65.7752 120.375 63.2252 120.375 93.2252V142.5H150V83.0252C150 36.7502 97.0498 38.4752 84.5998 61.2002L84.8998 48.6002Z"
    fill="black"
    />
</svg>