  <svg
    xmlns="http://www.w3.org/2000/svg"
    width="100%"
    height="100%"
    viewBox="0 0 150 150"
    fill="none"
>
    <path
    fillRule="evenodd"
    clipRule="evenodd"
    d="M53.79 85.005L75.015 99.5175L95.475 85.4025L141.337 130.65C140.13 131.04 138.84 131.25 137.498 131.25H12.5025C10.8525 131.25 9.27751 130.927 7.83001 130.35L53.79 85.005ZM150 47.82V118.748C150 120.6 149.595 122.355 148.875 123.937L103.92 79.5825L150 47.82ZM7.07702e-06 48.2175L45.315 79.2075L0.795007 123.143C0.267725 121.737 -0.00159175 120.248 7.07702e-06 118.748V48.2175ZM137.498 18.75C144.398 18.75 150 24.345 150 31.2525V35.6475L74.985 87.36L7.07702e-06 36.075V31.2525C7.07702e-06 24.3525 5.59501 18.75 12.5025 18.75H137.498Z"
    fill="black"
    />
</svg>