<svg width="85" height="63" viewBox="0 0 85 63" fill="none" xmlns="http://www.w3.org/2000/svg">
<g clip-path="url(#clip0_1259_264)">
<rect width="85" height="63" fill="white"/>
<path d="M78.5598 0.784668H6.44013C3.32028 0.784668 0.791138 3.29297 0.791138 6.38711V56.6129C0.791138 59.7071 3.32028 62.2154 6.44013 62.2154H78.5598C81.6796 62.2154 84.2088 59.7071 84.2088 56.6129V6.38711C84.2088 3.29297 81.6796 0.784668 78.5598 0.784668Z" fill="white"/>
<path d="M20.436 13.7903L19.8189 14.3945L13.8851 20.248C13.8492 20.2863 13.8054 20.3165 13.7566 20.3364C13.7079 20.3563 13.6553 20.3654 13.6027 20.3632C13.55 20.3609 13.4984 20.3474 13.4516 20.3234C13.4047 20.2995 13.3637 20.2657 13.3312 20.2245L12.1801 19.0985C12.1443 19.0641 12.1159 19.023 12.0964 18.9775C12.077 18.932 12.067 18.8831 12.067 18.8337C12.067 18.7843 12.077 18.7354 12.0964 18.6899C12.1159 18.6444 12.1443 18.6032 12.1801 18.5689L17.0063 13.7864L20.436 13.7903Z" fill="#03707D"/>
<path d="M20.4361 13.7904L23.0747 16.4072C23.1416 16.4877 23.1761 16.5899 23.1717 16.6942C23.1674 16.7984 23.1243 16.8974 23.051 16.9721L21.9037 18.1099C21.8318 18.1747 21.7368 18.2085 21.6397 18.2041C21.5426 18.1997 21.4512 18.1574 21.3855 18.0864L17.0341 13.7708L20.4361 13.7904Z" fill="#05979A"/>
<path d="M11.6421 14.9988L12.2632 14.4103L18.0427 8.65875C18.0792 8.62159 18.1232 8.59249 18.1719 8.57336C18.2205 8.55422 18.2727 8.54548 18.3249 8.5477C18.3772 8.54992 18.4284 8.56306 18.4752 8.58625C18.522 8.60944 18.5633 8.64217 18.5965 8.68229L19.7477 9.80827C19.784 9.84237 19.8128 9.88343 19.8326 9.92896C19.8523 9.97449 19.8625 10.0235 19.8625 10.0731C19.8625 10.1227 19.8523 10.1717 19.8326 10.2172C19.8128 10.2628 19.784 10.3038 19.7477 10.3379L15.0323 15.0066L11.6421 14.9988Z" fill="#118D38"/>
<path d="M11.6382 15.0065L8.99964 12.3897C8.93277 12.3092 8.89821 12.207 8.90259 12.1027C8.90697 11.9985 8.94998 11.8995 9.02338 11.8248L10.1706 10.687C10.2419 10.623 10.3356 10.5891 10.4318 10.5928C10.5279 10.5965 10.6187 10.6373 10.6848 10.7066L15.0363 15.0222L11.6382 15.0065Z" fill="#5EB130"/>
<path d="M0 26H85V40H0V26Z" fill="#1D1D1B"/>
<path d="M24.997 37H23.4707L25.7963 30.2633H27.6318L29.9542 37H28.4279L26.7404 31.8027H26.6878L24.997 37ZM24.9016 34.352H28.5068V35.4638H24.9016V34.352ZM31.1408 30.2633L32.7691 35.3816H32.8316L34.4631 30.2633H36.0421L33.7197 37H31.8842L29.5586 30.2633H31.1408ZM37.1185 37H35.5922L37.9178 30.2633H39.7533L42.0757 37H40.5494L38.8619 31.8027H38.8093L37.1185 37ZM37.0231 34.352H40.6283V35.4638H37.0231V34.352ZM48.5213 30.2633V37H47.291L44.3602 32.7599H44.3108V37H42.8865V30.2633H44.1365L47.0443 34.5H47.1035V30.2633H48.5213ZM55.642 32.6218H54.2013C54.175 32.4354 54.1212 32.2698 54.0401 32.1251C53.959 31.9782 53.8548 31.8532 53.7276 31.7501C53.6004 31.647 53.4535 31.5681 53.2868 31.5133C53.1223 31.4584 52.9436 31.431 52.7506 31.431C52.402 31.431 52.0982 31.5176 51.8395 31.6909C51.5807 31.8619 51.3801 32.1119 51.2375 32.4409C51.095 32.7676 51.0237 33.1645 51.0237 33.6316C51.0237 34.1119 51.095 34.5154 51.2375 34.8421C51.3822 35.1689 51.584 35.4156 51.8428 35.5823C52.1015 35.7489 52.4009 35.8323 52.7408 35.8323C52.9316 35.8323 53.1081 35.807 53.2704 35.7566C53.4348 35.7062 53.5807 35.6327 53.7079 35.5362C53.8351 35.4375 53.9403 35.318 54.0236 35.1777C54.1092 35.0373 54.1684 34.8772 54.2013 34.6974L55.642 34.704C55.6048 35.0132 55.5116 35.3114 55.3624 35.5987C55.2155 35.8838 55.0171 36.1393 54.7671 36.3651C54.5193 36.5888 54.2232 36.7665 53.8789 36.898C53.5368 37.0274 53.1498 37.0921 52.7177 37.0921C52.1169 37.0921 51.5796 36.9561 51.1059 36.6842C50.6345 36.4123 50.2617 36.0187 49.9875 35.5033C49.7156 34.988 49.5796 34.3641 49.5796 33.6316C49.5796 32.897 49.7178 32.272 49.9941 31.7567C50.2704 31.2413 50.6454 30.8488 51.1191 30.5791C51.5928 30.3071 52.1257 30.1712 52.7177 30.1712C53.1081 30.1712 53.4699 30.226 53.8033 30.3356C54.1388 30.4453 54.4359 30.6054 54.6947 30.8159C54.9535 31.0242 55.164 31.2797 55.3263 31.5823C55.4907 31.885 55.596 32.2314 55.642 32.6218ZM56.6634 37V30.2633H61.2028V31.4376H58.0877V33.0428H60.9693V34.2172H58.0877V35.8257H61.216V37H56.6634ZM58.4397 29.612L59.137 28.1153H60.4331L59.4298 29.612H58.4397Z" fill="white"/>
<path d="M33.716 44.4546L35.7018 48.4446L40.1443 49.088L36.9321 52.1913L37.6877 56.5814L33.716 54.51L29.7443 56.5814L30.5038 52.1913L27.2916 49.088L31.7301 48.4446L33.716 44.4546Z" fill="#1D1D1B"/>
<path d="M49.7889 44.4036L51.7747 48.3935L56.2172 49.033L53.005 52.1403L53.7645 56.5265L49.7889 54.455L45.8171 56.5265L46.5767 52.1403L43.3645 49.033L47.803 48.3935L49.7889 44.4036Z" fill="#1D1D1B"/>
<path d="M24.2141 13.8139C24.2039 13.048 24.4234 12.2963 24.8448 11.6544C25.2662 11.0125 25.8704 10.5093 26.5808 10.2086C27.2911 9.90793 28.0756 9.82341 28.8344 9.96576C29.5933 10.1081 30.2924 10.4709 30.843 11.0081C31.3935 11.5453 31.7707 12.2326 31.9266 12.9828C32.0825 13.733 32.0101 14.5122 31.7186 15.2215C31.4271 15.9308 30.9296 16.5382 30.2893 16.9666C29.649 17.3949 28.8948 17.6249 28.1225 17.6273C27.0977 17.6244 26.1148 17.2236 25.3843 16.5109C24.6538 15.7981 24.2337 14.83 24.2141 13.8139ZM25.7964 13.8139C25.7964 15.1792 26.7696 16.2973 28.1185 16.2973C28.7573 16.2707 29.3595 15.9947 29.7938 15.5295C30.2281 15.0642 30.4592 14.4475 30.4367 13.8139C30.4367 12.5113 29.333 11.3579 28.1185 11.3579C27.4868 11.3931 26.8928 11.6675 26.4592 12.1246C26.0256 12.5816 25.7855 13.1863 25.7885 13.8139H25.7964Z" fill="#1D1D1B"/>
<path d="M62.4081 16.8229C61.8664 17.3136 61.1636 17.5924 60.4301 17.6076C58.9665 17.6076 57.7085 16.6072 57.7085 15.1869C57.7085 13.7667 58.9862 12.8644 60.4776 12.8644C61.1863 12.8524 61.8737 13.1044 62.4041 13.5705V12.9664C62.393 12.7449 62.3377 12.5278 62.2414 12.3276C62.145 12.1275 62.0096 11.9484 61.8429 11.8005C61.6762 11.6527 61.4815 11.5392 61.2703 11.4666C61.059 11.394 60.8353 11.3637 60.6121 11.3774C59.8837 11.3762 59.1692 11.5744 58.5471 11.9502V10.6242C59.2502 10.2374 60.0416 10.0361 60.8455 10.0396C62.5782 10.0396 63.9469 11.2401 63.9469 12.833V17.4389H62.416L62.4081 16.8229ZM60.6952 14.0766C59.7932 14.0766 59.1128 14.6102 59.1128 15.2536C59.1128 15.897 59.8486 16.4306 60.7545 16.4306C61.6604 16.4306 62.412 15.8343 62.412 15.1948C62.412 14.5553 61.6129 14.0923 60.6952 14.0923V14.0766Z" fill="#1D1D1B"/>
<path d="M67.3965 16.2304C67.9147 16.2304 68.5279 16.1127 68.5279 15.4458C68.5279 15.022 68.2747 14.8769 67.8712 14.7043L66.5143 14.1432C65.7232 13.7744 65.106 13.2997 65.106 12.264C65.106 11.087 66.2928 10.0356 67.7051 10.0356C68.45 10.0078 69.1831 10.2258 69.7898 10.6554V12.2247C69.2227 11.7137 68.4941 11.4142 67.7288 11.3773C67.0247 11.3773 66.7161 11.7461 66.7161 12.1306C66.7161 12.5151 66.9337 12.6877 67.535 12.9702L68.8325 13.543C69.6909 13.9353 70.2012 14.4375 70.2012 15.3594C70.2012 16.6541 68.7969 17.6232 67.4044 17.6232C66.5616 17.6323 65.7352 17.3919 65.0309 16.9327V15.3281C65.6821 15.9049 66.5234 16.2258 67.3965 16.2304Z" fill="#1D1D1B"/>
<path d="M74.2242 16.3404C74.6298 16.3365 75.0224 16.1985 75.3398 15.9481V17.3408C74.8878 17.572 74.3845 17.6867 73.8761 17.6743C72.4678 17.6743 71.4195 16.6464 71.4195 15.1242V11.5304L70.209 11.5069V10.2593H71.4432V8.43497L72.986 7.94849V10.2475H75.0747V11.5147H73.0097V14.9555C73.0018 15.8225 73.4489 16.3404 74.2242 16.3404Z" fill="#1D1D1B"/>
<path d="M40.7932 13.8334C40.7932 15.9206 39.2662 17.635 37.2329 17.635C36.7272 17.6511 36.2253 17.5435 35.7713 17.3218C35.3174 17.1002 34.9254 16.7712 34.6299 16.3639V20.4206H33.0911V10.2004H34.6734V11.3264C34.9418 10.9117 35.3148 10.5737 35.7554 10.346C36.196 10.1182 36.6889 10.0085 37.1854 10.0278C39.2425 10.0278 40.7932 11.7266 40.7932 13.8334ZM34.5943 13.8334C34.5713 14.4538 34.7932 15.0587 35.2128 15.5195C35.6324 15.9803 36.2165 16.2607 36.8412 16.3011C37.4829 16.2799 38.0916 16.0139 38.5405 15.5586C38.9893 15.1032 39.2436 14.4937 39.2504 13.8569C39.2719 13.2249 39.0415 12.6099 38.6091 12.1451C38.1767 11.6802 37.5771 11.403 36.9401 11.3735C36.6241 11.3796 36.3124 11.4477 36.0231 11.5739C35.7338 11.7001 35.4725 11.8819 35.2544 12.1088C35.0363 12.3357 34.8657 12.6031 34.7524 12.8958C34.6391 13.1884 34.5854 13.5004 34.5943 13.8138V13.8334Z" fill="#1D1D1B"/>
<path d="M44.8677 10.0435C45.362 10.0251 45.8525 10.1348 46.291 10.3619C46.7294 10.5889 47.1006 10.9254 47.3678 11.3382V10.2122H48.9502V20.4127H47.4193V16.3796C47.1268 16.7837 46.7395 17.111 46.2907 17.3332C45.842 17.5554 45.3454 17.6657 44.844 17.6547C42.7909 17.6547 41.2837 15.9441 41.2837 13.853C41.2837 11.7619 42.8186 10.0435 44.8677 10.0435ZM45.1169 11.3656C44.48 11.3952 43.8804 11.6724 43.448 12.1372C43.0156 12.602 42.7852 13.217 42.8067 13.8491C42.8135 14.4865 43.0684 15.0966 43.518 15.5521C43.9677 16.0075 44.5774 16.2731 45.2198 16.2933C45.8459 16.2558 46.4323 15.9764 46.8531 15.515C47.2739 15.0537 47.4956 14.4471 47.4707 13.8255C47.4807 13.5109 47.4275 13.1974 47.3142 12.9034C47.2009 12.6093 47.0297 12.3405 46.8107 12.1127C46.5916 11.8849 46.3291 11.7025 46.0383 11.5763C45.7475 11.4501 45.4343 11.3825 45.1169 11.3774V11.3656Z" fill="#1D1D1B"/>
<path d="M55.2361 10.2239H56.8185V17.4819H55.2559V16.5129C55.0232 16.8589 54.7069 17.1417 54.3359 17.3356C53.9649 17.5295 53.5509 17.6284 53.1316 17.6232C51.4029 17.6232 50.4851 16.3442 50.4851 14.7984V10.2278H52.0239V14.4728C52.0239 15.5517 52.6648 16.2657 53.5865 16.2657C53.8208 16.2548 54.0505 16.1976 54.2622 16.0976C54.4739 15.9975 54.6634 15.8566 54.8196 15.6831C54.9757 15.5096 55.0955 15.3069 55.1717 15.087C55.248 14.8671 55.2793 14.6342 55.2638 14.4022L55.2361 10.2239Z" fill="#1D1D1B"/>
<path d="M66.3916 44.4036L68.3775 48.3935L72.8199 49.033L69.6078 52.1403L70.3673 56.5265L66.3916 54.455L62.4199 56.5265L63.1795 52.1403L59.9673 49.033L64.4058 48.3935L66.3916 44.4036Z" fill="#1D1D1B"/>
<path d="M18.114 44.4546L20.0999 48.4446L24.5424 49.088L21.3262 52.1913L22.0858 56.5814L18.114 54.51L14.1423 56.5814L14.9019 52.1913L11.6897 49.088L16.1282 48.4446L18.114 44.4546Z" fill="#1D1D1B"/>
</g>
<defs>
<clipPath id="clip0_1259_264">
<rect width="85" height="63" fill="white"/>
</clipPath>
</defs>
</svg>
